<svg width="13" height="17" viewBox="0 0 13 17" fill="none" xmlns="http://www.w3.org/2000/svg">
<path d="M6.4 0.52417C3.27111 0.52417 0 2.94195 0 6.92417C0 10.6931 5.68889 16.4531 5.90222 16.6664C6.04444 16.8086 6.18667 16.8797 6.4 16.8797C6.61333 16.8797 6.75555 16.8086 6.89778 16.6664C7.11111 16.4531 12.8 10.6931 12.8 6.92417C12.8 2.94195 9.52889 0.52417 6.4 0.52417ZM6.4 9.0575C5.19111 9.0575 4.26667 8.13306 4.26667 6.92417C4.26667 5.71528 5.19111 4.79084 6.4 4.79084C7.60889 4.79084 8.53333 5.71528 8.53333 6.92417C8.53333 8.13306 7.60889 9.0575 6.4 9.0575Z" fill="#0052B4"/>
</svg>
